<svg width="34" height="43" viewBox="0 0 34 43" fill="none" xmlns="http://www.w3.org/2000/svg">
<path d="M18.9242 2V0L14.9242 0V2L18.9242 2ZM14.9242 41C14.9242 42.1046 15.8197 43 16.9242 43C18.0288 43 18.9242 42.1046 18.9242 41H14.9242ZM32 28H34V24H32V28ZM15.322 39.8878C14.791 40.8564 15.1458 42.0721 16.1144 42.603C17.0829 43.134 18.2986 42.7792 18.8295 41.8106L15.322 39.8878ZM2 23.9999H0V27.9999H2V23.9999ZM14.9242 2L14.9242 40.8491H18.9242V2L14.9242 2ZM14.9242 40.8491V41H18.9242V40.8491H14.9242ZM32 24C29.6125 24 27.3829 25.2779 25.5465 26.7666C23.6618 28.2946 21.9012 30.2832 20.4143 32.1979C18.9182 34.1242 17.6494 36.0407 16.7572 37.4699C16.3098 38.1863 15.9544 38.7848 15.7093 39.2067C15.5868 39.4177 15.4917 39.5848 15.4264 39.7007C15.3937 39.7587 15.3685 39.8039 15.351 39.8354C15.3423 39.8511 15.3354 39.8634 15.3306 39.8722C15.3282 39.8766 15.3262 39.8801 15.3248 39.8827C15.3241 39.884 15.3235 39.8851 15.323 39.886C15.3228 39.8864 15.3225 39.8869 15.3224 39.8871C15.3222 39.8875 15.322 39.8878 17.0758 40.8492C18.8295 41.8106 18.8294 41.8109 18.8293 41.8111C18.8293 41.8111 18.8292 41.8112 18.8292 41.8112C18.8293 41.8111 18.8294 41.8108 18.8297 41.8104C18.8302 41.8094 18.8313 41.8075 18.8328 41.8048C18.8358 41.7993 18.8408 41.7903 18.8476 41.7779C18.8614 41.7532 18.8827 41.715 18.9113 41.6642C18.9686 41.5626 19.055 41.4107 19.1682 41.2157C19.3949 40.8255 19.7283 40.2639 20.1502 39.5882C20.9962 38.2332 22.1864 36.4373 23.5734 34.6514C24.9695 32.8537 26.516 31.1301 28.0656 29.8738C29.6635 28.5783 30.9954 28 32 28V24ZM16.9242 40.8491C18.7773 40.0966 18.7771 40.0961 18.7768 40.0955C18.7767 40.0952 18.7765 40.0946 18.7762 40.0941C18.7758 40.093 18.7753 40.0917 18.7746 40.0902C18.7734 40.0871 18.7718 40.0831 18.7698 40.0783C18.7658 40.0686 18.7603 40.0554 18.7534 40.0387C18.7396 40.0054 18.7198 39.9583 18.6943 39.8984C18.6433 39.7786 18.569 39.6074 18.4724 39.392C18.2791 38.9616 17.9956 38.3533 17.6276 37.626C16.8943 36.1766 15.8137 34.2304 14.4315 32.2715C13.0565 30.3227 11.3349 28.292 9.3008 26.7328C7.26366 25.1712 4.80133 23.9999 2 23.9999V27.9999C3.64564 27.9999 5.27232 28.6847 6.86728 29.9074C8.46531 31.1324 9.91883 32.814 11.1632 34.5775C12.4003 36.3309 13.3831 38.097 14.0584 39.4318C14.3948 40.0967 14.6518 40.6485 14.8232 41.0301C14.9087 41.2208 14.9727 41.3686 15.0144 41.4663C15.0352 41.5152 15.0504 41.5515 15.0599 41.5743C15.0647 41.5858 15.068 41.5938 15.0699 41.5984C15.0708 41.6007 15.0714 41.6021 15.0716 41.6027C15.0717 41.603 15.0718 41.603 15.0717 41.6028C15.0717 41.6027 15.0715 41.6024 15.0715 41.6024C15.0714 41.602 15.0712 41.6016 16.9242 40.8491Z" fill="black"/>
</svg>
