<svg width="153" height="153" viewBox="0 0 153 153" fill="none" xmlns="http://www.w3.org/2000/svg">
<path d="M82.2373 14.7467C80.5517 14.5992 79.2702 14.1016 78.3928 13.2539C77.5273 12.4072 77.1529 11.2482 77.2696 9.77675L79.1882 9.94464C79.0567 11.8605 80.1326 12.9183 82.4159 13.1181C83.3603 13.2007 84.0992 13.0847 84.6327 12.77C85.1791 12.4444 85.4827 11.9349 85.5434 11.2416C85.5925 10.6797 85.421 10.231 85.0288 9.89558C84.6376 9.54815 83.9085 9.2073 82.8416 8.87302L81.7681 8.5442C80.4762 8.16614 79.5216 7.64896 78.9045 6.99267C78.2873 6.33637 78.0248 5.48223 78.1169 4.43025C78.2089 3.37827 78.6886 2.57703 79.5559 2.02654C80.4242 1.46409 81.5517 1.24354 82.9384 1.36488C84.612 1.51133 85.8358 1.97979 86.6099 2.77028C87.3959 3.56181 87.7459 4.58622 87.66 5.84352L85.7592 5.67719C85.7717 4.84712 85.5495 4.21936 85.0929 3.79394C84.6492 3.3576 83.8894 3.09236 82.8136 2.99822C81.9768 2.92499 81.3236 3.02444 80.8541 3.29654C80.3846 3.56865 80.1247 3.99161 80.0745 4.56542C80.0233 5.15118 80.1818 5.61075 80.5502 5.94413C80.9164 6.30141 81.6216 6.64017 82.6656 6.9604L83.757 7.2908C85.1882 7.72923 86.195 8.26904 86.7773 8.91025C87.3716 9.5525 87.6253 10.3697 87.5385 11.3619C87.4349 12.5454 86.911 13.4391 85.9668 14.0431C85.0345 14.6482 83.7913 14.8827 82.2373 14.7467Z" fill="black"/>
<path d="M91.987 16.4203C90.7073 16.0965 89.7809 15.4041 89.2076 14.343C88.6344 13.282 88.5273 12.0418 88.8864 10.6226C89.2485 9.19167 89.934 8.14587 90.9429 7.48517C91.9372 6.83316 93.08 6.67053 94.3713 6.99727C95.4765 7.27692 96.3073 7.80899 96.8639 8.59349C97.4321 9.38093 97.6565 10.3042 97.537 11.3632L95.7571 10.9129C95.7909 10.2901 95.644 9.77019 95.3163 9.35306C95.0002 8.93888 94.5572 8.65967 93.9872 8.51543C93.231 8.32409 92.5554 8.45022 91.9604 8.89382C91.38 9.32873 90.9603 10.0581 90.7012 11.0818C90.4422 12.1055 90.4631 12.9525 90.7638 13.6228C91.0792 14.2844 91.615 14.7108 92.3711 14.9021C92.9528 15.0493 93.4884 15.0116 93.978 14.7889C94.4676 14.5662 94.8427 14.1598 95.1035 13.5697L96.8834 14.0201C96.4788 15.0317 95.8321 15.7531 94.9432 16.1843C94.0543 16.6154 93.0689 16.6941 91.987 16.4203Z" fill="black"/>
<path d="M104.573 10.5303C104.819 10.6254 104.98 10.6938 105.054 10.7352L104.437 12.3302L104.017 12.168C103.156 11.8349 102.407 11.7902 101.773 12.0338C101.138 12.2774 100.665 12.8022 100.354 13.6081L98.5369 18.3092L96.858 17.6603L100.206 8.99683L101.818 9.6198L101.221 11.1644C102.202 10.2571 103.32 10.0457 104.573 10.5303Z" fill="black"/>
<path d="M109.474 22.386C108.302 22.7617 107.115 22.6242 105.912 21.9733C104.708 21.3225 103.943 20.4039 103.616 19.2175C103.289 18.031 103.474 16.794 104.171 15.5063C104.873 14.208 105.81 13.371 106.982 12.9953C108.137 12.6245 109.322 12.7673 110.536 13.4239C111.75 14.0804 112.518 14.9938 112.84 16.1639C113.162 17.3341 112.969 18.5735 112.261 19.8824C111.559 21.1806 110.63 22.0152 109.474 22.386ZM105.31 18.8854C105.463 19.6367 105.909 20.2121 106.648 20.6118C107.387 21.0114 108.107 21.0668 108.809 20.778C109.522 20.4949 110.123 19.8994 110.614 18.9917C111.105 18.084 111.274 17.2545 111.121 16.5032C110.979 15.7577 110.538 15.1851 109.799 14.7854C109.061 14.3858 108.335 14.3275 107.622 14.6107C106.91 14.8938 106.308 15.4892 105.817 16.3969C105.326 17.3046 105.157 18.1341 105.31 18.8854Z" fill="black"/>
<path d="M112.275 25.7065L110.797 24.679L118.113 14.1559L119.591 15.1834L112.275 25.7065Z" fill="black"/>
<path d="M115.455 28.1615L114.047 27.0406L122.028 17.0131L123.436 18.1341L115.455 28.1615Z" fill="black"/>
<path d="M130.632 32.0266L134.222 28.8587L135.413 30.2084L125.804 38.6879L124.66 37.3922L125.686 36.4871C124.434 36.6639 123.359 36.2439 122.462 35.2271C121.604 34.2553 121.25 33.1917 121.399 32.0362C121.547 30.8808 122.18 29.8108 123.295 28.8263C124.411 27.8417 125.552 27.3476 126.716 27.3439C127.881 27.3402 128.893 27.8242 129.75 28.796C130.616 29.7768 130.91 30.8536 130.632 32.0266ZM124.48 30.2776C123.706 30.9604 123.271 31.6728 123.173 32.4149C123.076 33.157 123.301 33.8385 123.849 34.4593C124.413 35.0982 125.074 35.4031 125.832 35.3739C126.573 35.3607 127.339 35.0047 128.131 34.306C128.913 33.6153 129.366 32.8954 129.49 32.1465C129.604 31.4055 129.379 30.7155 128.816 30.0767C128.268 29.4558 127.606 29.1594 126.831 29.1875C126.055 29.2155 125.272 29.5789 124.48 30.2776Z" fill="black"/>
<path d="M131.644 45.6938C130.437 45.4511 129.467 44.7526 128.733 43.5981C127.999 42.4436 127.778 41.2687 128.071 40.0733C128.363 38.8778 129.127 37.8874 130.363 37.102C131.608 36.3102 132.834 36.0356 134.041 36.2782C135.231 36.5172 136.196 37.2189 136.936 38.3836C137.676 39.5482 137.902 40.7199 137.614 41.8987C137.325 43.0776 136.553 44.0662 135.297 44.8644C134.051 45.6563 132.834 45.9327 131.644 45.6938ZM129.712 40.6083C129.48 41.339 129.589 42.0587 130.04 42.7676C130.49 43.4765 131.092 43.8758 131.846 43.9654C132.606 44.0652 133.422 43.8382 134.293 43.2846C135.164 42.731 135.715 42.0888 135.947 41.3582C136.186 40.6376 136.08 39.9229 135.63 39.214C135.179 38.5051 134.574 38.1008 133.813 38.001C133.053 37.9013 132.238 38.1282 131.367 38.6819C130.496 39.2355 129.944 39.8776 129.712 40.6083Z" fill="black"/>
<path d="M140.537 55.3401L144.577 55.005L145.3 56.7901L135.536 57.4241L134.826 55.6724L138.133 52.9539C138.968 52.2662 139.781 51.6197 140.572 51.0147C139.122 51.1747 138.09 51.2817 137.478 51.3356L133.218 51.7017L132.501 49.9333L139.955 43.5935L140.684 45.3953L137.543 47.9493C136.697 48.6415 135.796 49.3563 134.839 50.0936C135.721 49.9694 136.861 49.8442 138.26 49.7177L142.293 49.366L142.968 51.0343L139.821 53.5716C138.459 54.6538 137.561 55.3608 137.126 55.6925C137.669 55.6277 138.806 55.5103 140.537 55.3401Z" fill="black"/>
<path d="M146.5 62.7943C146.705 63.7934 146.584 64.633 146.135 65.3131C145.699 65.9908 144.969 66.4346 143.946 66.6446L137.846 67.8972L137.484 66.1339L143.338 64.932C144.607 64.6714 145.11 63.9004 144.847 62.6191C144.727 62.0314 144.395 61.5483 143.851 61.1698C143.296 60.7937 142.596 60.6926 141.749 60.8664L136.618 61.9198L136.256 60.1566L145.355 58.2886L145.702 59.9813L144.344 60.26C145.533 60.7388 146.252 61.5835 146.5 62.7943Z" fill="black"/>
<path d="M137.677 82.0583C137.82 80.3723 138.313 79.0894 139.159 78.2095C140.003 77.3415 141.161 76.9638 142.632 77.0762L142.47 78.9954C140.554 78.8694 139.499 79.9484 139.306 82.2322C139.226 83.1768 139.344 83.9154 139.661 84.448C139.988 84.9935 140.498 85.2956 141.192 85.3542C141.754 85.4018 142.202 85.2289 142.536 84.8357C142.882 84.4435 143.221 83.7135 143.552 82.6456L143.878 81.5712C144.252 80.2781 144.767 79.3221 145.421 78.7031C146.076 78.084 146.929 77.819 147.981 77.908C149.034 77.997 149.836 78.4744 150.389 79.34C150.954 80.2067 151.178 81.3336 151.061 82.7207C150.919 84.3947 150.454 85.6199 149.666 86.3962C148.877 87.1845 147.853 87.5375 146.596 87.4552L146.757 85.554C147.587 85.564 148.214 85.34 148.638 84.8822C149.073 84.4372 149.336 83.6767 149.427 82.6005C149.498 81.7635 149.396 81.1107 149.123 80.642C148.85 80.1732 148.426 79.9146 147.852 79.8661C147.266 79.8165 146.807 79.9764 146.475 80.3457C146.118 80.713 145.782 81.4191 145.464 82.4641L145.137 83.5564C144.703 84.9889 144.166 85.9972 143.527 86.5814C142.886 87.1775 142.07 87.4336 141.077 87.3497C139.893 87.2495 138.998 86.7282 138.391 85.7857C137.784 84.8552 137.545 83.6127 137.677 82.0583Z" fill="black"/>
<path d="M136.04 91.786C136.36 90.5054 137.05 89.5769 138.109 89.0006C139.168 88.4242 140.408 88.3135 141.828 88.6684C143.26 89.0263 144.308 89.7087 144.972 90.7156C145.627 91.708 145.793 92.8503 145.47 94.1426C145.194 95.2486 144.664 96.081 143.881 96.6399C143.095 97.2104 142.173 97.4375 141.113 97.3212L141.558 95.54C142.181 95.5719 142.701 95.4235 143.117 95.0945C143.53 94.7773 143.808 94.3334 143.951 93.7629C144.14 93.0062 144.012 92.331 143.566 91.7373C143.13 91.1582 142.399 90.7406 141.375 90.4846C140.35 90.2286 139.503 90.2519 138.834 90.5547C138.173 90.872 137.748 91.409 137.559 92.1657C137.414 92.7478 137.453 93.2833 137.677 93.7723C137.901 94.2612 138.309 94.6351 138.9 94.8941L138.455 96.6753C137.442 96.2738 136.718 95.6292 136.285 94.7416C135.851 93.8539 135.769 92.8687 136.04 91.786Z" fill="black"/>
<path d="M141.959 104.369C141.864 104.615 141.797 104.776 141.755 104.85L140.158 104.238L140.319 103.818C140.65 102.955 140.693 102.207 140.447 101.573C140.202 100.939 139.676 100.468 138.869 100.158L134.162 98.355L134.806 96.6742L143.48 99.9975L142.861 101.611L141.315 101.019C142.225 101.997 142.44 103.114 141.959 104.369Z" fill="black"/>
<path d="M130.107 109.306C129.728 108.135 129.862 106.947 130.51 105.742C131.157 104.537 132.073 103.769 133.259 103.439C134.444 103.109 135.682 103.29 136.972 103.983C138.272 104.681 139.112 105.616 139.491 106.786C139.865 107.941 139.726 109.126 139.073 110.342C138.42 111.557 137.508 112.328 136.339 112.654C135.17 112.979 133.93 112.79 132.619 112.086C131.319 111.387 130.482 110.461 130.107 109.306ZM133.596 105.132C132.845 105.287 132.271 105.735 131.873 106.475C131.476 107.215 131.423 107.935 131.713 108.636C131.999 109.348 132.596 109.948 133.505 110.436C134.414 110.925 135.244 111.091 135.995 110.936C136.74 110.792 137.311 110.349 137.709 109.609C138.106 108.869 138.162 108.143 137.877 107.432C137.592 106.72 136.995 106.12 136.086 105.632C135.177 105.143 134.347 104.977 133.596 105.132Z" fill="black"/>
<path d="M126.8 112.097L127.823 110.616L138.367 117.9L137.344 119.381L126.8 112.097Z" fill="black"/>
<path d="M124.351 115.32L125.468 113.908L135.518 121.86L134.401 123.272L124.351 115.32Z" fill="black"/>
<path d="M120.537 130.522L123.715 134.103L122.369 135.298L113.862 125.713L115.154 124.565L116.062 125.589C115.882 124.337 116.299 123.261 117.313 122.361C118.282 121.5 119.345 121.143 120.501 121.288C121.657 121.434 122.728 122.063 123.716 123.176C124.704 124.289 125.201 125.428 125.208 126.593C125.215 127.758 124.734 128.77 123.765 129.631C122.787 130.499 121.711 130.796 120.537 130.522ZM122.268 124.365C121.583 123.593 120.87 123.159 120.127 123.064C119.385 122.969 118.704 123.196 118.085 123.746C117.448 124.311 117.145 124.973 117.176 125.731C117.191 126.472 117.55 127.237 118.25 128.027C118.943 128.808 119.665 129.259 120.414 129.38C121.155 129.492 121.845 129.265 122.482 128.7C123.101 128.15 123.396 127.488 123.365 126.712C123.335 125.937 122.969 125.154 122.268 124.365Z" fill="black"/>
<path d="M106.875 131.544C107.114 130.337 107.81 129.364 108.962 128.627C110.115 127.89 111.289 127.666 112.485 127.955C113.681 128.244 114.674 129.005 115.463 130.238C116.258 131.481 116.537 132.706 116.297 133.914C116.062 135.104 115.363 136.071 114.201 136.815C113.038 137.559 111.867 137.788 110.687 137.503C109.508 137.218 108.517 136.448 107.715 135.195C106.92 133.951 106.64 132.734 106.875 131.544ZM111.955 129.597C111.224 129.367 110.504 129.479 109.797 129.931C109.089 130.384 108.691 130.987 108.604 131.741C108.506 132.502 108.736 133.317 109.292 134.186C109.848 135.055 110.492 135.605 111.223 135.835C111.944 136.072 112.659 135.964 113.366 135.511C114.074 135.058 114.476 134.452 114.574 133.691C114.672 132.931 114.442 132.116 113.886 131.247C113.33 130.377 112.686 129.828 111.955 129.597Z" fill="black"/>
<path d="M97.2644 140.481L97.6112 144.519L95.8282 145.248L95.1659 135.485L96.9156 134.771L99.6436 138.07C100.334 138.903 100.983 139.714 101.59 140.503C101.426 139.053 101.316 138.022 101.26 137.41L100.882 133.151L102.648 132.43L109.009 139.864L107.209 140.599L104.646 137.466C103.952 136.622 103.234 135.722 102.494 134.767C102.621 135.649 102.75 136.789 102.88 138.187L103.244 142.219L101.577 142.9L99.0308 139.759C97.9446 138.401 97.2351 137.505 96.9021 137.071C96.9685 137.614 97.0892 138.751 97.2644 140.481Z" fill="black"/>
<path d="M89.8289 146.443C88.8304 146.651 87.9904 146.532 87.309 146.086C86.6301 145.651 86.1841 144.923 85.9711 143.901L84.7005 137.804L86.4626 137.436L87.6818 143.287C87.9462 144.556 88.7187 145.056 89.9992 144.79C90.5865 144.667 91.0687 144.334 91.4455 143.789C91.82 143.233 91.919 142.532 91.7428 141.687L90.6741 136.559L92.4363 136.192L94.3312 145.284L92.6395 145.637L92.3567 144.28C91.8815 145.47 91.0389 146.191 89.8289 146.443Z" fill="black"/>
<path d="M70.5133 137.685C72.1997 137.822 73.4841 138.312 74.3664 139.155C75.2368 139.997 75.6179 141.154 75.5097 142.626L73.5901 142.469C73.7105 140.552 72.6285 139.501 70.3441 139.314C69.3993 139.237 68.661 139.357 68.1294 139.675C67.5848 140.004 67.2842 140.515 67.2276 141.209C67.1817 141.771 67.3558 142.219 67.75 142.552C68.1432 142.897 68.8742 143.234 69.9431 143.562L71.0184 143.884C72.3125 144.255 73.27 144.766 73.891 145.419C74.5119 146.072 74.7794 146.925 74.6934 147.977C74.6075 149.029 74.1325 149.834 73.2684 150.389C72.4033 150.956 71.2771 151.184 69.8897 151.07C68.2153 150.934 66.9888 150.472 66.2102 149.686C65.4196 148.899 65.0636 147.877 65.1423 146.619L67.0439 146.774C67.0363 147.604 67.2621 148.231 67.7212 148.654C68.1674 149.087 68.9287 149.348 70.0051 149.436C70.8423 149.505 71.4949 149.401 71.9628 149.127C72.4307 148.852 72.6881 148.427 72.735 147.853C72.7829 147.267 72.6217 146.808 72.2514 146.477C71.8831 146.122 71.176 145.787 70.1301 145.473L69.0368 145.149C67.6031 144.719 66.5932 144.185 66.0072 143.547C65.4092 142.908 65.1507 142.093 65.2318 141.1C65.3285 139.916 65.8472 139.019 66.7879 138.41C67.7167 137.799 68.9585 137.558 70.5133 137.685Z" fill="black"/>
<path d="M60.8016 136.062C62.0832 136.378 63.0137 137.065 63.5932 138.122C64.1727 139.18 64.287 140.42 63.9363 141.841C63.5826 143.274 62.9033 144.324 61.8983 144.99C60.9079 145.648 59.766 145.818 58.4728 145.499C57.366 145.225 56.532 144.698 55.9709 143.917C55.398 143.133 55.1682 142.211 55.2814 141.151L57.0639 141.591C57.0338 142.214 57.1838 142.733 57.514 143.148C57.8325 143.561 58.2771 143.837 58.848 143.978C59.6053 144.165 60.2801 144.035 60.8725 143.588C61.4504 143.15 61.8658 142.418 62.1188 141.392C62.3718 140.367 62.3459 139.52 62.0412 138.852C61.722 138.192 61.1837 137.769 60.4264 137.582C59.8439 137.438 59.3085 137.479 58.8202 137.705C58.332 137.93 57.9592 138.339 57.702 138.931L55.9195 138.491C56.318 137.477 56.9605 136.751 57.8468 136.315C58.7332 135.879 59.7181 135.794 60.8016 136.062Z" fill="black"/>
<path d="M48.2419 142.032C47.9951 141.938 47.8345 141.871 47.7603 141.83L48.3675 140.231L48.7881 140.391C49.6519 140.719 50.4004 140.759 51.0334 140.512C51.6665 140.265 52.1364 139.737 52.4432 138.93L54.2328 134.218L55.9155 134.857L52.6175 143.54L51.0022 142.926L51.5902 141.378C50.6144 142.291 49.4983 142.509 48.2419 142.032Z" fill="black"/>
<path d="M43.2721 130.207C44.4417 129.825 45.6301 129.955 46.8371 130.599C48.0441 131.243 48.8145 132.157 49.1484 133.341C49.4822 134.526 49.3046 135.764 48.6156 137.056C47.921 138.358 46.9888 139.201 45.8192 139.583C44.6658 139.961 43.4802 139.825 42.2626 139.175C41.045 138.526 40.2718 137.617 39.9429 136.449C39.614 135.28 39.7997 134.04 40.5 132.727C41.1946 131.425 42.1186 130.585 43.2721 130.207ZM47.4564 133.683C47.299 132.933 46.8497 132.36 46.1086 131.965C45.3674 131.57 44.6467 131.518 43.9465 131.811C43.2356 132.098 42.6374 132.697 42.1517 133.608C41.666 134.519 41.5019 135.349 41.6592 136.099C41.806 136.844 42.25 137.414 42.9912 137.809C43.7323 138.205 44.4583 138.259 45.1691 137.972C45.88 137.684 46.4782 137.085 46.9639 136.175C47.4496 135.264 47.6137 134.434 47.4564 133.683Z" fill="black"/>
<path d="M40.4492 126.894L41.9331 127.913L34.679 138.479L33.1951 137.46L40.4492 126.894Z" fill="black"/>
<path d="M37.2488 124.461L38.6636 125.574L30.7405 135.647L29.3257 134.535L37.2488 124.461Z" fill="black"/>
<path d="M22.0063 120.692L18.4345 123.88L17.2358 122.537L26.7965 114.002L27.9472 115.292L26.9267 116.203C28.178 116.019 29.2551 116.432 30.1581 117.444C31.0212 118.411 31.3817 119.472 31.2397 120.629C31.0976 121.785 30.4716 122.858 29.3616 123.849C28.2515 124.84 27.114 125.341 25.9491 125.351C24.7842 125.362 23.7702 124.884 22.9071 123.917C22.036 122.941 21.7358 121.866 22.0063 120.692ZM28.1686 122.405C28.9385 121.718 29.37 121.003 29.4631 120.26C29.5562 119.517 29.327 118.837 28.7756 118.22C28.2082 117.584 27.5454 117.283 26.7871 117.316C26.0467 117.334 25.2826 117.694 24.4948 118.398C23.716 119.093 23.2671 119.815 23.1481 120.565C23.0381 121.307 23.2668 121.995 23.8341 122.631C24.3855 123.249 25.0489 123.541 25.8241 123.509C26.5993 123.476 27.3808 123.108 28.1686 122.405Z" fill="black"/>
<path d="M20.9524 107.031C22.1603 107.266 23.1345 107.959 23.875 109.11C24.6156 110.26 24.8431 111.433 24.5577 112.63C24.2723 113.828 23.5141 114.822 22.2832 115.615C21.0422 116.414 19.8178 116.696 18.6099 116.46C17.4186 116.228 16.4495 115.532 15.7024 114.371C14.9554 113.211 14.7228 112.041 15.0046 110.86C15.2864 109.68 16.0529 108.687 17.304 107.881C18.545 107.082 19.7611 106.799 20.9524 107.031ZM22.9135 112.105C23.1415 111.373 23.0282 110.654 22.5735 109.948C22.1187 109.241 21.5142 108.845 20.76 108.76C19.9993 108.665 19.1851 108.897 18.3174 109.455C17.4497 110.014 16.9018 110.659 16.6737 111.391C16.4392 112.113 16.5493 112.827 17.004 113.533C17.4587 114.24 18.0665 114.641 18.8272 114.736C19.5879 114.831 20.4021 114.6 21.2698 114.041C22.1375 113.482 22.6854 112.837 22.9135 112.105Z" fill="black"/>
<path d="M11.9838 97.4196L7.94612 97.7781L7.21274 95.9972L16.973 95.3066L17.6927 97.0542L14.4012 99.7918C13.5703 100.484 12.7613 101.135 11.9741 101.745C13.4232 101.577 14.4538 101.464 15.066 101.406L19.324 101.015L20.0505 102.78L12.6343 109.163L11.894 107.365L15.0201 104.793C15.8621 104.096 16.7596 103.376 17.7125 102.633C16.8313 102.762 15.6917 102.894 14.2936 103.029L10.2628 103.404L9.57738 101.739L12.7103 99.1839C14.0653 98.0938 14.9595 97.3816 15.3929 97.0474C14.8498 97.1153 13.7135 97.2394 11.9838 97.4196Z" fill="black"/>
<path d="M6.0183 90.0136C5.80725 89.0157 5.9239 88.1754 6.36825 87.4927C6.80086 86.8124 7.52787 86.3643 8.54928 86.1483L14.6425 84.8596L15.0149 86.6207L9.16827 87.8572C7.90032 88.1254 7.40166 88.8993 7.6723 90.179C7.79645 90.766 8.13125 91.2471 8.67669 91.6224C9.23388 91.9952 9.93513 92.0922 10.7804 91.9134L15.9051 90.8296L16.2775 92.5906L7.19052 94.5125L6.83298 92.8219L8.18898 92.5351C6.9976 92.0634 6.27404 91.2229 6.0183 90.0136Z" fill="black"/>
<path d="M14.706 70.6963C14.5732 72.3831 14.0867 73.6689 13.2467 74.5537C12.4075 75.4265 11.2518 75.8109 9.77941 75.707L9.93062 73.7869C11.8475 73.9018 12.8959 72.8168 13.0759 70.5318C13.1503 69.5868 13.0279 68.8489 12.7085 68.3182C12.3782 67.7745 11.8661 67.4754 11.1723 67.4208C10.61 67.3765 10.1628 67.5519 9.8308 67.9471C9.48679 68.3413 9.15228 69.0733 8.82729 70.1431L8.50781 71.2193C8.14099 72.5145 7.63213 73.4735 6.98122 74.0963C6.33032 74.7192 5.47849 74.9891 4.42575 74.9062C3.37301 74.8233 2.56764 74.3506 2.00963 73.4881C1.43966 72.6247 1.20931 71.4992 1.3186 70.1115C1.4505 68.4366 1.90831 67.2088 2.69203 66.4279C3.4767 65.6351 4.49803 65.2761 5.75603 65.3511L5.60623 67.2533C4.77608 67.2481 4.15028 67.4756 3.72884 67.936C3.29637 68.3834 3.03775 69.1454 2.95296 70.2221C2.88701 71.0595 2.99212 71.7118 3.2683 72.1789C3.54448 72.646 3.96968 72.9022 4.5439 72.9474C5.13009 72.9936 5.58826 72.8311 5.91843 72.4598C6.27251 72.0905 6.60513 71.3824 6.91628 70.3356L7.23717 69.2414C7.66315 67.8065 8.19419 66.795 8.83031 66.2072C9.46737 65.6073 10.2824 65.3465 11.2753 65.4247C12.4596 65.518 13.3579 66.0341 13.97 66.973C14.5832 67.9 14.8285 69.1411 14.706 70.6963Z" fill="black"/>
<path d="M16.3012 60.9596C15.9887 62.242 15.3045 63.1746 14.2486 63.7572C13.1927 64.3398 11.9535 64.4578 10.5311 64.1112C9.09706 63.7618 8.04524 63.0856 7.37564 62.0826C6.71487 61.0941 6.54213 59.9527 6.85744 58.6586C7.1273 57.551 7.652 56.7155 8.43155 56.152C9.21393 55.5768 10.1352 55.3443 11.1952 55.4544L10.7606 57.2382C10.1376 57.2099 9.61899 57.3615 9.20478 57.6928C8.7934 58.0125 8.51812 58.458 8.37893 59.0293C8.19429 59.7871 8.32639 60.4616 8.77523 61.0526C9.21526 61.6292 9.94826 62.0424 10.9742 62.2924C12.0002 62.5424 12.847 62.5141 13.5146 62.2074C14.1733 61.8862 14.595 61.3467 14.7797 60.5888C14.9217 60.0059 14.8792 59.4706 14.6522 58.983C14.4252 58.4954 14.0155 58.1239 13.4231 57.8684L13.8577 56.0846C14.8729 56.4801 15.6 57.1205 16.039 58.0055C16.478 58.8906 16.5653 59.8753 16.3012 60.9596Z" fill="black"/>
<path d="M10.2739 48.4063C10.3669 48.1592 10.4338 47.9985 10.4747 47.9241L12.075 48.5267L11.9164 48.9478C11.5908 49.8125 11.5526 50.5611 11.8018 51.1934C12.051 51.8258 12.5798 52.2942 13.3884 52.5986L18.1052 54.3746L17.4709 56.0591L8.77863 52.7863L9.38751 51.1692L10.9373 51.7527C10.0215 50.7796 9.80031 49.6641 10.2739 48.4063Z" fill="black"/>
<path d="M22.0854 43.407C22.4713 44.5756 22.3442 45.7643 21.7039 46.9732C21.0636 48.1821 20.1517 48.9552 18.9682 49.2925C17.7847 49.6298 16.546 49.4558 15.2523 48.7705C13.948 48.0797 13.1028 47.15 12.7169 45.9814C12.3359 44.8291 12.4684 43.6432 13.1143 42.4237C13.7602 41.2042 14.6668 40.4283 15.8341 40.096C17.0014 39.7637 18.2425 39.9458 19.5574 40.6422C20.8618 41.3331 21.7044 42.2547 22.0854 43.407ZM18.6213 47.6015C19.3712 47.4419 19.9427 46.991 20.3359 46.2486C20.7291 45.5063 20.7782 44.7855 20.4832 44.0861C20.1939 43.3761 19.5932 42.7796 18.6813 42.2965C17.7693 41.8135 16.9383 41.6518 16.1884 41.8113C15.4442 41.9603 14.8754 42.4059 14.4823 43.1482C14.0891 43.8905 14.0372 44.6167 14.3265 45.3267C14.6159 46.0367 15.2165 46.6332 16.1285 47.1162C17.0405 47.5993 17.8714 47.761 18.6213 47.6015Z" fill="black"/>
<path d="M25.4185 40.5908L24.404 42.0777L13.8176 34.8542L14.8321 33.3674L25.4185 40.5908Z" fill="black"/>
<path d="M27.8152 37.3595L26.7065 38.7775L16.6102 30.8834L17.7189 29.4654L27.8152 37.3595Z" fill="black"/>
<path d="M31.5621 22.1333L28.3632 18.5707L29.7025 17.3681L38.2649 26.9041L36.9791 28.0586L36.0652 27.0407C36.2528 28.2914 35.8421 29.3698 34.8332 30.2757C33.8689 31.1416 32.8084 31.5051 31.6517 31.3664C30.495 31.2277 29.4195 30.6048 28.4254 29.4976C27.4313 28.3904 26.9273 27.2544 26.9135 26.0895C26.8997 24.9246 27.3749 23.9092 28.3393 23.0433C29.3125 22.1695 30.3868 21.8661 31.5621 22.1333ZM29.8664 28.3005C30.5559 29.0684 31.2721 29.4978 32.015 29.5888C32.7579 29.6797 33.4374 29.4486 34.0534 28.8954C34.6874 28.3262 34.9865 27.6625 34.9508 26.9043C34.9312 26.1639 34.5686 25.4009 33.8631 24.6151C33.1656 23.8383 32.4418 23.3915 31.6918 23.2747C30.9499 23.1668 30.2619 23.3974 29.628 23.9667C29.0119 24.5199 28.7212 25.184 28.756 25.9592C28.7908 26.7343 29.1609 27.5148 29.8664 28.3005Z" fill="black"/>
<path d="M45.2331 21.0229C45.001 22.2314 44.3109 23.2076 43.1628 23.9515C42.0147 24.6954 40.8418 24.9263 39.6439 24.6444C38.446 24.3625 37.449 23.6072 36.6529 22.3785C35.8503 21.1398 35.5651 19.9162 35.7973 18.7076C36.0259 17.5157 36.7192 16.5445 37.8774 15.7941C39.0355 15.0437 40.2052 14.8077 41.3865 15.0861C42.5678 15.3645 43.563 16.1281 44.3722 17.3769C45.1748 18.6156 45.4618 19.8309 45.2331 21.0229ZM40.1647 22.9986C40.8973 23.2245 41.6161 23.1091 42.321 22.6524C43.026 22.1956 43.42 21.59 43.5031 20.8355C43.5963 20.0745 43.3623 19.2609 42.8011 18.3948C42.2399 17.5287 41.593 16.9827 40.8604 16.7568C40.1378 16.5243 39.4241 16.6365 38.7191 17.0933C38.0142 17.55 37.6151 18.1589 37.522 18.9199C37.4288 19.6809 37.6628 20.4945 38.224 21.3606C38.7851 22.2267 39.432 22.7727 40.1647 22.9986Z" fill="black"/>
<path d="M54.8155 12.0439L54.4453 8.00728L56.2241 7.26873L56.9429 17.027L55.1974 17.7518L52.4503 14.4682C51.7554 13.6393 51.1019 12.8322 50.49 12.0468C50.6626 13.4954 50.7786 14.5257 50.8378 15.1377L51.2409 19.3946L49.4788 20.1262L43.0745 12.7285L44.8699 11.983L47.4511 15.1017C48.1506 15.9416 48.8732 16.837 49.6188 17.7878C49.487 16.907 49.3518 15.7677 49.2132 14.37L48.8264 10.3403L50.4888 9.65005L53.0534 12.7756C54.1474 14.1274 54.8621 15.0195 55.1975 15.4519C55.1281 14.9091 55.0007 13.7731 54.8155 12.0439Z" fill="black"/>
<path d="M62.1941 6.03237C63.1914 5.81837 64.032 5.93253 64.7161 6.37486C65.3976 6.80546 65.8479 7.53114 66.0669 8.5519L67.3735 14.6413L65.6136 15.0189L64.3598 9.17595C64.0879 7.90879 63.3125 7.41243 62.0336 7.68686C61.447 7.81274 60.9668 8.14896 60.5932 8.69552C60.2221 9.25381 60.1271 9.95535 60.3084 10.8001L61.4074 15.9215L59.6474 16.2992L57.6988 7.21791L59.3883 6.85536L59.6791 8.21051C60.1473 7.01774 60.9856 6.29169 62.1941 6.03237Z" fill="black"/>
</svg>
